<svg display="none" xmlns="http://www.w3.org/2000/svg">
<!--mail-->
    <symbol id = "mail" viewBox="0 0 512 512" >
        <g>
            <path  d="M467,76H45C20.137,76,0,96.262,0,121v270c0,24.885,20.285,45,45,45h422c24.655,0,45-20.03,45-45V121
                C512,96.306,491.943,76,467,76z M460.698,106c-9.194,9.145-167.415,166.533-172.878,171.967c-8.5,8.5-19.8,13.18-31.82,13.18
                s-23.32-4.681-31.848-13.208C220.478,274.284,64.003,118.634,51.302,106H460.698z M30,384.894V127.125L159.638,256.08L30,384.894z
                M51.321,406l129.587-128.763l22.059,21.943c14.166,14.166,33,21.967,53.033,21.967c20.033,0,38.867-7.801,53.005-21.939
                l22.087-21.971L460.679,406H51.321z M482,384.894L352.362,256.08L482,127.125V384.894z"/>
	    </g>
    </symbol>

    <!--smartphone-->
    <symbol id = "smartphone" viewBox="0 0 31.685 31.685" >
        <g>
            <path  d="M22.507,0H9.175C7.9,0,6.87,1.034,6.87,2.309v27.07c0,1.271,1.03,2.306,2.305,2.306h13.332
                c1.273,0,2.307-1.034,2.307-2.306V2.309C24.813,1.034,23.78,0,22.507,0z M23.085,25.672H8.599V3.895h14.486V25.672z M18.932,2.343
                h-6.181V1.669h6.182L18.932,2.343L18.932,2.343z M21.577,2.035c0,0.326-0.266,0.59-0.591,0.59c-0.326,0-0.591-0.265-0.591-0.59
                s0.265-0.59,0.591-0.59C21.312,1.444,21.577,1.709,21.577,2.035z M18.655,29.225h-5.629v-1.732h5.629V29.225z"/>
	    </g>
    </symbol>
    
    <!--free sign-->
    <symbol id = "free" viewBox="0 0 512 512">
        <g>
            <path style="fill:#455A64;" d="M444.128,229.568L301.312,63.2c1.6-4.8,2.688-9.856,2.688-15.2c0-26.464-21.536-48-48-48
				s-48,21.536-48,48c0,5.344,1.088,10.4,2.688,15.2L67.84,229.6c-5.728,6.688-4.96,16.8,1.728,22.528C72.608,254.72,76.288,256,80,256
				c4.512,0,8.96-1.888,12.128-5.568L230.912,88.768C238.24,93.248,246.784,96,256,96s17.76-2.752,25.056-7.264L419.872,250.4
				c3.168,3.712,7.616,5.6,12.128,5.6c3.68,0,7.392-1.28,10.4-3.872C449.12,246.4,449.92,236.288,444.128,229.568z M240,48
				c0-8.832,7.168-16,16-16s16,7.168,16,16s-7.168,16-16,16S240,56.832,240,48z"/>
			<path style="fill:#00a03e;" d="M496,224H16c-8.832,0-16,7.168-16,16v256c0,8.832,7.168,16,16,16h480c8.832,0,16-7.168,16-16V240
				C512,231.168,504.832,224,496,224z"/>
		</g>
    </symbol>
    
    <!--mail-->
    <symbol id = "email" viewBox="0 0 511.974 511.974" >
        <g>
			<path  d="M511.872,195.725c-0.053-0.588-0.17-1.169-0.35-1.732c-0.117-0.503-0.28-0.994-0.486-1.468
				c-0.239-0.463-0.525-0.901-0.853-1.306c-0.329-0.481-0.71-0.924-1.135-1.323c-0.137-0.119-0.196-0.282-0.341-0.401
				l-82.065-63.735V59.704c0-14.138-11.462-25.6-25.6-25.6h-92.476L271.539,5.355c-9.147-7.134-21.974-7.134-31.121,0
				l-37.035,28.749h-92.476c-14.138,0-25.6,11.461-25.6,25.6v66.057L3.268,189.496c-0.145,0.12-0.205,0.282-0.341,0.401
				c-0.425,0.398-0.806,0.842-1.135,1.323c-0.328,0.405-0.614,0.842-0.853,1.306c-0.207,0.473-0.369,0.965-0.486,1.468
				c-0.178,0.555-0.295,1.127-0.35,1.707c0,0.179-0.102,0.333-0.102,0.512V486.37c0.012,5.428,1.768,10.708,5.009,15.061
				c0.051,0.077,0.06,0.171,0.119,0.239c0.06,0.068,0.188,0.145,0.273,0.239c4.794,6.308,12.25,10.027,20.173,10.061h460.8
				c7.954-0.024,15.441-3.761,20.241-10.103c0.068-0.085,0.171-0.111,0.23-0.196c0.06-0.085,0.068-0.162,0.12-0.239
				c3.241-4.354,4.997-9.634,5.009-15.061V196.237C511.974,196.058,511.881,195.904,511.872,195.725z M250.854,18.82
				c2.98-2.368,7.2-2.368,10.18,0l19.686,15.283h-49.493L250.854,18.82z M27.725,494.904l223.13-173.321
				c2.982-2.364,7.199-2.364,10.18,0l223.189,173.321H27.725z M494.908,481.6L271.539,308.117c-9.149-7.128-21.972-7.128-31.121,0
				L17.041,481.6V209.233L156.877,317.82c3.726,2.889,9.088,2.211,11.977-1.515c2.889-3.726,2.211-9.088-1.515-11.977
				L25.276,194.018l60.032-46.652v65.937c0,4.713,3.821,8.533,8.533,8.533c4.713,0,8.533-3.821,8.533-8.533v-153.6
				c0-4.713,3.82-8.533,8.533-8.533h290.133c4.713,0,8.533,3.82,8.533,8.533v153.6c0,4.713,3.82,8.533,8.533,8.533
				s8.533-3.821,8.533-8.533v-65.937l60.032,46.652l-142.31,110.507c-2.448,1.855-3.711,4.883-3.305,7.928s2.417,5.637,5.266,6.786
				c2.849,1.149,6.096,0.679,8.501-1.232l140.083-108.774V481.6z"/>
			<path d="M358.374,204.77v-34.133c0-56.554-45.846-102.4-102.4-102.4c-56.554,0-102.4,45.846-102.4,102.4
				s45.846,102.4,102.4,102.4c4.713,0,8.533-3.82,8.533-8.533s-3.82-8.533-8.533-8.533c-47.128,0-85.333-38.205-85.333-85.333
				s38.205-85.333,85.333-85.333s85.333,38.205,85.333,85.333v34.133c0,9.426-7.641,17.067-17.067,17.067
				s-17.067-7.641-17.067-17.067v-34.133c0-4.713-3.82-8.533-8.533-8.533s-8.533,3.82-8.533,8.533
				c0,18.851-15.282,34.133-34.133,34.133c-18.851,0-34.133-15.282-34.133-34.133s15.282-34.133,34.133-34.133
				c4.713,0,8.533-3.82,8.533-8.533s-3.82-8.533-8.533-8.533c-22.915-0.051-43.074,15.13-49.354,37.168
				c-6.28,22.038,2.847,45.565,22.347,57.601c19.5,12.036,44.622,9.65,61.507-5.843c1.858,18.046,17.543,31.464,35.659,30.505
				C344.25,237.91,358.431,222.912,358.374,204.77z"/>
		</g>
    </symbol>
	

</svg>